<?xml version="1.0" encoding="UTF-8" standalone="no"?>
<!-- Created with Inkscape (http://www.inkscape.org/) -->

<svg
   xmlns:dc="http://purl.org/dc/elements/1.1/"
   xmlns:cc="http://creativecommons.org/ns#"
   xmlns:rdf="http://www.w3.org/1999/02/22-rdf-syntax-ns#"
   xmlns:svg="http://www.w3.org/2000/svg"
   xmlns="http://www.w3.org/2000/svg"
   xmlns:sodipodi="http://sodipodi.sourceforge.net/DTD/sodipodi-0.dtd"
   xmlns:inkscape="http://www.inkscape.org/namespaces/inkscape"
   width="32"
   height="32"
   viewBox="0 0 31.999999 32"
   id="svg2"
   version="1.1"
   inkscape:version="0.91 r13725"
   sodipodi:docname="alwaysactive.svg">
  <defs
     id="defs4" />
  <sodipodi:namedview
     id="base"
     pagecolor="#ffffff"
     bordercolor="#666666"
     borderopacity="1.0"
     inkscape:pageopacity="0.0"
     inkscape:pageshadow="2"
     inkscape:zoom="3.959798"
     inkscape:cx="-2.4823217"
     inkscape:cy="30.636099"
     inkscape:document-units="px"
     inkscape:current-layer="layer1"
     showgrid="false"
     fit-margin-top="0"
     fit-margin-left="0"
     fit-margin-right="0"
     fit-margin-bottom="0"
     units="px"
     inkscape:snap-page="true"
     inkscape:snap-bbox="true"
     inkscape:bbox-nodes="true"
     inkscape:window-width="1920"
     inkscape:window-height="1023"
     inkscape:window-x="0"
     inkscape:window-y="0"
     inkscape:window-maximized="1" />
  <metadata
     id="metadata7">
    <rdf:RDF>
      <cc:Work
         rdf:about="">
        <dc:format>image/svg+xml</dc:format>
        <dc:type
           rdf:resource="http://purl.org/dc/dcmitype/StillImage" />
        <dc:title></dc:title>
      </cc:Work>
    </rdf:RDF>
  </metadata>
  <g
     inkscape:label="Layer 1"
     inkscape:groupmode="layer"
     id="layer1"
     transform="translate(-134.34961,-607.71484)">
    <path
       style="opacity:1;fill:#ffffff;stroke:none;stroke-width:8;stroke-miterlimit:4;stroke-dasharray:none;stroke-dashoffset:0"
       d="m 150.34961,607.71484 a 15.999821,15.999824 0 0 0 -16,16 15.999821,15.999824 0 0 0 3.33744,9.76363 l 14.48866,-25.63028 0.12134,0 a 15.999821,15.999824 0 0 0 -1.94744,-0.13335 z m 10.41478,3.86244 3.53085,19.96577 a 15.999821,15.999824 0 0 0 2.05437,-7.82821 15.999821,15.999824 0 0 0 -5.58522,-12.13756 z m -5.79547,3.02868 -5.60444,10.36192 7.2263,0 -1.62186,-10.36192 z m -8.21745,15.24554 -2.66707,4.90164 -5.3077,0 a 15.999821,15.999824 0 0 0 11.57291,4.9617 15.999821,15.999824 0 0 0 11.55729,-4.9617 l -3.64019,0 -0.77489,-4.90164 -10.74035,0 z"
       id="path4136"
       inkscape:connector-curvature="0" />
  </g>
</svg>
